#!OML:ASF F:\VICON\USERDATA\INSTALL\rory3\rory3.ASF
:FULLY-SPECIFIED
:DEGREES
397
root 0.444407 17.9902 40.4668 -2.85939 1.54879 -5.0519
lowerback 7.85602 -1.4526 2.67556
upperback 0.00564578 -1.52184 3.74599
thorax -4.37287 -0.771887 2.56545
lowerneck -15.6695 -3.54834 -2.72551
upperneck 18.8515 -4.70914 2.19928
head 8.58107 -2.18813 0.626593
rclavicle 1.29396e-014 -3.18055e-015
rhumerus -36.0386 -16.4759 -77.3668
rradius 26.926
rwrist 4.81263
rhand -12.3183 19.9017
rfingers 7.12502
rthumb 13.7502 -9.62391
lclavicle 1.29396e-014 -3.18055e-015
lhumerus -35.4982 -4.47961 84.8106
lradius 30.542
lwrist 3.23611
lhand -22.5581 27.3935
lfingers 7.12502
lthumb 3.86983 57.3381
rfemur -18.7681 5.19947 30.1906
rtibia 30.0842
rfoot -7.08606 -4.18847
rtoes 1.75252
lfemur -0.580376 -4.77238 -15.0462
ltibia 57.7492
lfoot 17.1188 -21.8623
ltoes -16.8944
398
root 0.432562 17.9995 40.6225 -2.88325 1.50729 -4.94084
lowerback 8.12306 -1.31734 2.64144
upperback 0.0368088 -1.33757 3.6215
thorax -4.49682 -0.681058 2.44069
lowerneck -16.0546 -3.61761 -2.48101
upperneck 19.1978 -4.79067 1.85595
head 8.75496 -2.23923 0.4521
rclavicle 1.8487e-014 7.95139e-015
rhumerus -35.8755 -15.9231 -77.8463
rradius 27.305
rwrist 4.45326
rhand -12.4205 19.9582
rfingers 7.12502
rthumb 13.6518 -9.57408
lclavicle 1.8487e-014 7.95139e-015
lhumerus -35.3674 -4.66946 84.9336
lradius 30.2483
lwrist 3.12696
lhand -22.3138 27.4598
lfingers 7.12502
lthumb 4.10579 57.3999
rfemur -18.183 5.12911 30.1962
rtibia 30.1013
rfoot -7.49021 -4.0569
rtoes 2.05341
lfemur -2.11721 -4.39256 -14.9579
ltibia 59.7247
lfoot 15.2577 -21.2883
ltoes -16.5131
399
root 0.415654 18.0024 40.7903 -3.06237 1.33794 -5.18259
lowerback 8.26138 -1.20776 2.8285
upperback 0.183663 -1.17175 3.65146
thorax -4.42821 -0.602209 2.34761
lowerneck -16.1513 -3.55149 -2.29211
upperneck 19.2045 -4.69076 1.61321
head 8.76112 -2.20343 0.35004
rclavicle -2.49226e-014 -1.15295e-014
rhumerus -35.5548 -15.404 -78.248
rradius 27.2893
rwrist 3.9537
rhand -12.8572 20.389
rfingers 7.12502
rthumb 13.2309 -9.17108
lclavicle -2.49226e-014 -1.15295e-014
lhumerus -35.2802 -4.48386 84.9208
lradius 30.0482
lwrist 2.6397
lhand -22.3055 27.0949
lfingers 7.12502
lthumb 4.11378 57.035
rfemur -17.4024 5.1997 30.6438
rtibia 30.2113
rfoot -8.02746 -4.04455
rtoes 1.7813
lfemur -3.36045 -3.85493 -14.447
ltibia 61.5155
lfoot 12.6445 -21.0702
ltoes -17.6216
400
root 0.409316 18.0078 40.9663 -3.22502 1.31111 -5.34855
lowerback 8.32426 -1.15169 3.08631
upperback 0.262884 -1.07254 3.65066
thorax -4.38771 -0.558005 2.19
lowerneck -15.7125 -3.45099 -2.51228
upperneck 18.7037 -4.57149 1.97235
head 8.52389 -2.13181 0.532578
rclavicle -2.11209e-014 2.70347e-014
rhumerus -35.3664 -14.6821 -78.5935
rradius 27.1902
rwrist 3.2042
rhand -13.3342 21.2058
rfingers 7.12502
rthumb 12.771 -8.38363
lclavicle -2.11209e-014 2.70347e-014
lhumerus -35.2906 -4.09568 84.9177
lradius 29.719
lwrist 2.02728
lhand -22.5755 26.4159
lfingers 7.12502
lthumb 3.85302 56.3608
rfemur -16.5029 4.96869 30.9583
rtibia 30.2139
rfoot -8.60825 -3.92408
rtoes 1.19939
lfemur -4.5317 -3.46964 -14.0983
ltibia 63.0756
lfoot 10.0068 -20.3378
ltoes -20.1173
401
root 0.402211 18.0284 41.1351 -3.19411 1.20933 -5.13845
lowerback 8.20519 -0.97049 3.01865
upperback 0.351586 -0.855055 3.50441
thorax -4.23229 -0.44947 2.04434
lowerneck -16.2162 -3.62396 -2.47852
upperneck 19.1261 -4.79253 1.85595
head 8.75969 -2.23826 0.449225
rclavicle -2.23633e-016 -4.09496e-014
rhumerus -34.9813 -14.3648 -78.8685
rradius 27.0842
rwrist 2.75854
rhand -13.5017 21.4007
rfingers 7.12502
rthumb 12.6095 -8.1987
lclavicle -2.23633e-016 -4.09496e-014
lhumerus -35.1472 -4.02601 84.9898
lradius 29.401
lwrist 1.75362
lhand -22.7673 26.4475
lfingers 7.12502
lthumb 3.6678 56.3957
rfemur -15.8752 4.82452 30.829
rtibia 30.1681
rfoot -9.08898 -3.70985
rtoes 1.77009
lfemur -5.95664 -3.03108 -14.2059
ltibia 64.4112
lfoot 8.39361 -18.8895
ltoes -18.5307
402
root 0.38668 18.0482 41.3053 -3.25941 1.01593 -5.17174
lowerback 8.04372 -0.789456 3.01303
upperback 0.474887 -0.629691 3.4964
thorax -4.01599 -0.336461 2.00722
lowerneck -16.0731 -3.65954 -2.55553
upperneck 19.177 -4.81021 1.78342
head 8.75172 -2.26085 0.437305
rclavicle 1.7667e-014 -8.34896e-015
rhumerus -34.7008 -13.8754 -79.1417
rradius 27.1495
rwrist 2.57738
rhand -13.6106 21.3882
rfingers 7.12502
rthumb 12.5045 -8.21771
lclavicle 1.7667e-014 -8.34896e-015
lhumerus -35.1494 -3.73685 85.081
lradius 29.2503
lwrist 1.48631
lhand -22.1571 26.9767
lfingers 7.12502
lthumb 4.25702 56.9139
rfemur -15.1282 4.99999 31.0244
rtibia 30.0565
rfoot -9.49653 -3.82802
rtoes 1.61702
lfemur -7.22504 -2.51184 -13.9868
ltibia 65.6091
lfoot 6.70303 -17.6479
ltoes -17.746
403
root 0.372118 18.0542 41.4648 -3.35387 0.856196 -5.14213
lowerback 8.08337 -0.612708 3.00464
upperback 0.523441 -0.398521 3.41693
thorax -3.99084 -0.222069 1.90251
lowerneck -15.5977 -3.61361 -2.58631
upperneck 18.996 -4.74929 1.79997
head 8.60407 -2.23793 0.4652
rclavicle 3.27995e-015 -1.82882e-014
rhumerus -34.4087 -13.4337 -79.4262
rradius 26.982
rwrist 2.46233
rhand -13.8487 21.8072
rfingers 7.12502
rthumb 12.275 -7.81258
lclavicle 3.27995e-015 -1.82882e-014
lhumerus -35.2337 -3.594 85.1184
lradius 29.0884
lwrist 1.2761
lhand -21.8533 27.2098
lfingers 7.12502
lthumb 4.55039 57.1409
rfemur -14.3547 5.15067 31.149
rtibia 29.9269
rfoot -9.91797 -4.04797
rtoes 1.43906
lfemur -8.45088 -2.05585 -13.8535
ltibia 66.6772
lfoot 4.66521 -16.3489
ltoes -20.9077
404
root 0.363712 18.0688 41.606 -3.30275 0.67774 -5.2543
lowerback 8.24482 -0.443224 3.22685
upperback 0.55437 -0.146435 3.37833
thorax -4.05258 -0.101586 1.7102
lowerneck -15.5492 -3.67989 -2.72764
upperneck 18.8937 -4.82712 1.90702
head 8.56907 -2.27425 0.516375
rclavicle 2.06612e-014 -1.59028e-015
rhumerus -33.6817 -12.8081 -79.774
rradius 26.4574
rwrist 1.88213
rhand -14.3992 22.2771
rfingers 7.12502
rthumb 11.7442 -7.37371
lclavicle 2.06612e-014 -1.59028e-015
lhumerus -35.2386 -2.98922 85.0259
lradius 29.1282
lwrist 0.686582
lhand -21.974 27.1082
lfingers 7.12502
lthumb 4.43386 57.0418
rfemur -13.7553 5.26193 31.3946
rtibia 29.6907
rfoot -10.1301 -4.25517
rtoes 1.32899
lfemur -10.1094 -1.63137 -13.5806
ltibia 67.7
lfoot 3.40391 -15.0579
ltoes -23.0935
405
root 0.360634 18.0875 41.7576 -3.24208 0.589232 -5.17515
lowerback 8.31679 -0.305893 3.30373
upperback 0.597993 0.0406341 3.26221
thorax -4.04829 -0.0109933 1.52441
lowerneck -15.9041 -3.79081 -2.80472
upperneck 19.1785 -4.97522 1.98153
head 8.73794 -2.33638 0.527388
rclavicle 8.70925e-015 1.19271e-015
rhumerus -32.9229 -12.4934 -80.0448
rradius 25.8701
rwrist 1.56924
rhand -14.9056 23.7998
rfingers 7.12502
rthumb 11.2558 -5.87823
lclavicle 8.70925e-015 1.19271e-015
lhumerus -35.371 -2.18636 84.7746
lradius 29.4705
lwrist 0.014277
lhand -21.8742 27.2107
lfingers 7.12502
lthumb 4.53024 57.1423
rfemur -13.0788 5.11579 31.3853
rtibia 29.4246
rfoot -10.4974 -4.15253
rtoes 1.37346
lfemur -11.6984 -1.3361 -13.6307
ltibia 68.5545
lfoot 2.69546 -14.3352
ltoes -23.5438
406
root 0.352758 18.1028 41.9292 -3.30723 0.449608 -5.24071
lowerback 8.15241 -0.200244 3.45554
upperback 0.722477 0.176 3.17353
thorax -3.82607 0.0553001 1.32898
lowerneck -15.8145 -3.79658 -2.64323
upperneck 19.1486 -5.00675 1.89758
head 8.70549 -2.34932 0.470715
rclavicle 5.67779e-015 7.95139e-016
rhumerus -32.4181 -12.3343 -80.266
rradius 25.6545
rwrist 1.96864
rhand -14.5858 24.5311
rfingers 7.12502
rthumb 11.5642 -5.12988
lclavicle 5.67779e-015 7.95139e-016
lhumerus -35.623 -1.99431 84.7341
lradius 29.7481
lwrist 0.545637
lhand -24.2749 25.6051
lfingers 7.12502
lthumb 2.21185 55.5734
rfemur -12.2016 5.13758 31.5866
rtibia 29.1931
rfoot -10.9176 -4.18123
rtoes 0.876045
lfemur -12.9173 -0.810673 -13.5226
ltibia 69.1849
lfoot 1.43933 -13.5148
ltoes -23.9119
407
root 0.332114 18.1033 42.088 -3.56038 -0.0150591 -5.61854
lowerback 8.32767 0.0104006 3.70998
upperback 0.940596 0.48057 3.21082
thorax -3.69486 0.205085 1.18977
lowerneck -15.7676 -3.82797 -2.56372
upperneck 18.8152 -5.09933 2.06936
head 8.58852 -2.37138 0.507513
rclavicle 1.68097e-014 -3.69739e-014
rhumerus -31.8794 -11.9824 -80.5599
rradius 25.8276
rwrist 2.50385
rhand -14.1308 23.1619
rfingers 7.12502
rthumb 12.0029 -6.47393
lclavicle 1.68097e-014 -3.69739e-014
lhumerus -35.6659 -2.43589 84.9538
lradius 30.0061
lwrist 1.90439
lhand -27.3591 23.3252
lfingers 7.12502
lthumb -0.766924 53.3036
rfemur -11.298 5.62095 32.2412
rtibia 29.1099
rfoot -11.3507 -4.45382
rtoes 0.735809
lfemur -13.8752 0.050043 -12.9311
ltibia 69.6165
lfoot 0.00666759 -12.5327
ltoes -23.4764
